<mxfile host="app.diagrams.net" modified="2021-05-30T23:28:26.667Z" agent="5.0 (Windows NT 10.0; Win64; x64) AppleWebKit/537.36 (KHTML, like Gecko) Chrome/91.0.4472.77 Safari/537.36" etag="0x3aBUBuRlU9KhQq1JUO" version="14.7.3" type="github">
  <diagram id="efgcIDd-TDXN1GQC0pDD" name="第 1 页">
    <mxGraphModel dx="1209" dy="649" grid="1" gridSize="10" guides="1" tooltips="1" connect="1" arrows="1" fold="1" page="1" pageScale="1" pageWidth="850" pageHeight="1100" math="0" shadow="0">
      <root>
        <mxCell id="0" />
        <mxCell id="1" parent="0" />
        <mxCell id="i-cecyi2e775cCpRPbeq-65" value="" style="rounded=1;whiteSpace=wrap;html=1;fillColor=none;" parent="1" vertex="1">
          <mxGeometry x="314" y="620" width="256" height="180" as="geometry" />
        </mxCell>
        <mxCell id="i-cecyi2e775cCpRPbeq-58" value="" style="rounded=1;whiteSpace=wrap;html=1;dashed=1;" parent="1" vertex="1">
          <mxGeometry x="260" y="680" width="90" height="70" as="geometry" />
        </mxCell>
        <mxCell id="i-cecyi2e775cCpRPbeq-64" value="" style="rounded=1;whiteSpace=wrap;html=1;dashed=1;" parent="1" vertex="1">
          <mxGeometry x="520" y="670" width="40" height="80" as="geometry" />
        </mxCell>
        <mxCell id="EhJ2OECVo1qDTwe-o5zJ-1" value="" style="swimlane;html=1;startSize=20;horizontal=1;containerType=tree;glass=0;dashed=1;strokeColor=none;fillColor=none;" parent="1" vertex="1">
          <mxGeometry x="40" y="80" width="530" height="310" as="geometry">
            <mxRectangle x="40" y="80" width="80" height="20" as="alternateBounds" />
          </mxGeometry>
        </mxCell>
        <mxCell id="EhJ2OECVo1qDTwe-o5zJ-2" value="" style="rounded=1;whiteSpace=wrap;html=1;dashed=1;strokeWidth=2;strokeColor=#6666FF;" parent="EhJ2OECVo1qDTwe-o5zJ-1" vertex="1">
          <mxGeometry x="396.78" y="105" width="110" height="100" as="geometry" />
        </mxCell>
        <mxCell id="EhJ2OECVo1qDTwe-o5zJ-3" value="" style="rounded=1;whiteSpace=wrap;html=1;dashed=1;strokeWidth=2;strokeColor=#CC0000;" parent="EhJ2OECVo1qDTwe-o5zJ-1" vertex="1">
          <mxGeometry x="235" y="90" width="110" height="100" as="geometry" />
        </mxCell>
        <mxCell id="EhJ2OECVo1qDTwe-o5zJ-41" value="" style="shape=collate;html=1;dashed=1;strokeColor=#6666FF;strokeWidth=2;rotation=-90;whiteSpace=wrap;labelBorderColor=none;labelBackgroundColor=#ffffff;" parent="EhJ2OECVo1qDTwe-o5zJ-1" vertex="1">
          <mxGeometry x="250" y="100" width="80" height="80" as="geometry" />
        </mxCell>
        <mxCell id="EhJ2OECVo1qDTwe-o5zJ-42" value="蒸馏" style="text;html=1;strokeColor=none;fillColor=none;align=center;verticalAlign=middle;whiteSpace=wrap;rounded=0;dashed=1;labelBackgroundColor=#ffffff;" parent="EhJ2OECVo1qDTwe-o5zJ-1" vertex="1">
          <mxGeometry x="250" y="130" width="40" height="20" as="geometry" />
        </mxCell>
        <mxCell id="EhJ2OECVo1qDTwe-o5zJ-43" value="知识" style="text;html=1;strokeColor=none;fillColor=none;align=center;verticalAlign=middle;whiteSpace=wrap;rounded=0;dashed=1;labelBackgroundColor=#ffffff;" parent="EhJ2OECVo1qDTwe-o5zJ-1" vertex="1">
          <mxGeometry x="290" y="130" width="40" height="20" as="geometry" />
        </mxCell>
        <mxCell id="EhJ2OECVo1qDTwe-o5zJ-44" value="教师模型" style="text;html=1;strokeColor=none;fillColor=none;align=center;verticalAlign=middle;whiteSpace=wrap;rounded=0;dashed=1;labelBackgroundColor=#ffffff;" parent="EhJ2OECVo1qDTwe-o5zJ-1" vertex="1">
          <mxGeometry x="85" y="40" width="50" height="20" as="geometry" />
        </mxCell>
        <mxCell id="EhJ2OECVo1qDTwe-o5zJ-45" value="知识迁移" style="text;html=1;strokeColor=none;fillColor=none;align=center;verticalAlign=middle;whiteSpace=wrap;rounded=0;dashed=1;labelBackgroundColor=#ffffff;" parent="EhJ2OECVo1qDTwe-o5zJ-1" vertex="1">
          <mxGeometry x="265" y="70" width="50" height="20" as="geometry" />
        </mxCell>
        <mxCell id="EhJ2OECVo1qDTwe-o5zJ-66" value="Data" style="shape=datastore;whiteSpace=wrap;html=1;labelBackgroundColor=#ffffff;strokeColor=#000000;strokeWidth=2;fillColor=none;" parent="EhJ2OECVo1qDTwe-o5zJ-1" vertex="1">
          <mxGeometry x="260" y="250" width="60" height="30" as="geometry" />
        </mxCell>
        <mxCell id="EhJ2OECVo1qDTwe-o5zJ-67" value="" style="edgeStyle=segmentEdgeStyle;endArrow=classic;html=1;strokeColor=#000000;fillColor=#CCCCFF;entryX=0.5;entryY=1;entryDx=0;entryDy=0;" parent="EhJ2OECVo1qDTwe-o5zJ-1" target="EhJ2OECVo1qDTwe-o5zJ-2" edge="1">
          <mxGeometry width="50" height="50" relative="1" as="geometry">
            <mxPoint x="320" y="270" as="sourcePoint" />
            <mxPoint x="370" y="220" as="targetPoint" />
          </mxGeometry>
        </mxCell>
        <mxCell id="EhJ2OECVo1qDTwe-o5zJ-69" value="学生模型" style="text;html=1;strokeColor=none;fillColor=none;align=center;verticalAlign=middle;whiteSpace=wrap;rounded=0;labelBackgroundColor=#ffffff;" parent="EhJ2OECVo1qDTwe-o5zJ-1" vertex="1">
          <mxGeometry x="412.5" y="70" width="65" height="20" as="geometry" />
        </mxCell>
        <mxCell id="B3fZlqtm0j4gGUwRaWmn-13" value="" style="shape=cube;whiteSpace=wrap;html=1;boundedLbl=1;backgroundOutline=1;darkOpacity=0.05;darkOpacity2=0.1;" vertex="1" parent="EhJ2OECVo1qDTwe-o5zJ-1">
          <mxGeometry x="458.92428571428565" y="156.66333333333336" width="26.78571428571429" height="23.333333333333336" as="geometry" />
        </mxCell>
        <mxCell id="B3fZlqtm0j4gGUwRaWmn-14" value="" style="shape=cube;whiteSpace=wrap;html=1;boundedLbl=1;backgroundOutline=1;darkOpacity=0.05;darkOpacity2=0.1;" vertex="1" parent="EhJ2OECVo1qDTwe-o5zJ-1">
          <mxGeometry x="438.3885714285714" y="139.99666666666667" width="26.78571428571429" height="46.66666666666667" as="geometry" />
        </mxCell>
        <mxCell id="B3fZlqtm0j4gGUwRaWmn-16" value="" style="shape=cube;whiteSpace=wrap;html=1;boundedLbl=1;backgroundOutline=1;darkOpacity=0.05;darkOpacity2=0.1;" vertex="1" parent="EhJ2OECVo1qDTwe-o5zJ-1">
          <mxGeometry x="412.4957142857143" y="110.82999999999998" width="26.78571428571429" height="79.16666666666667" as="geometry" />
        </mxCell>
        <mxCell id="EhJ2OECVo1qDTwe-o5zJ-4" value="" style="rounded=1;whiteSpace=wrap;html=1;dashed=1;strokeWidth=2;" parent="EhJ2OECVo1qDTwe-o5zJ-1" vertex="1">
          <mxGeometry x="50" y="75.41" width="140" height="150" as="geometry" />
        </mxCell>
        <mxCell id="EhJ2OECVo1qDTwe-o5zJ-68" value="" style="edgeStyle=segmentEdgeStyle;endArrow=classic;html=1;strokeColor=#000000;fillColor=#CCCCFF;entryX=0.5;entryY=1;entryDx=0;entryDy=0;exitX=0;exitY=0.7;exitDx=0;exitDy=0;" parent="EhJ2OECVo1qDTwe-o5zJ-1" source="EhJ2OECVo1qDTwe-o5zJ-66" target="EhJ2OECVo1qDTwe-o5zJ-4" edge="1">
          <mxGeometry width="50" height="50" relative="1" as="geometry">
            <mxPoint x="330" y="280" as="sourcePoint" />
            <mxPoint x="455" y="200" as="targetPoint" />
          </mxGeometry>
        </mxCell>
        <mxCell id="EhJ2OECVo1qDTwe-o5zJ-88" value="" style="shape=flexArrow;endArrow=classic;html=1;exitX=1;exitY=0.5;exitDx=0;exitDy=0;strokeColor=#E5CCFF;fillColor=#CCFFFF;" parent="1" edge="1">
          <mxGeometry width="50" height="50" relative="1" as="geometry">
            <mxPoint x="235" y="220" as="sourcePoint" />
            <mxPoint x="285" y="220" as="targetPoint" />
            <Array as="points">
              <mxPoint x="255" y="220" />
            </Array>
          </mxGeometry>
        </mxCell>
        <mxCell id="EhJ2OECVo1qDTwe-o5zJ-89" value="" style="shape=flexArrow;endArrow=classic;html=1;strokeColor=#E5CCFF;exitX=0.5;exitY=1;exitDx=0;exitDy=0;fillColor=#CCCCFF;" parent="1" edge="1">
          <mxGeometry width="50" height="50" relative="1" as="geometry">
            <mxPoint x="373" y="220" as="sourcePoint" />
            <mxPoint x="423" y="220" as="targetPoint" />
          </mxGeometry>
        </mxCell>
        <mxCell id="i-cecyi2e775cCpRPbeq-2" value="" style="group" parent="1" vertex="1" connectable="0">
          <mxGeometry x="320" y="640" width="250" height="160" as="geometry" />
        </mxCell>
        <mxCell id="i-cecyi2e775cCpRPbeq-56" value="" style="rounded=1;whiteSpace=wrap;html=1;dashed=1;" parent="i-cecyi2e775cCpRPbeq-2" vertex="1">
          <mxGeometry x="40" y="-10" width="140" height="160" as="geometry" />
        </mxCell>
        <mxCell id="i-cecyi2e775cCpRPbeq-3" value="" style="ellipse;whiteSpace=wrap;html=1;aspect=fixed;" parent="i-cecyi2e775cCpRPbeq-2" vertex="1">
          <mxGeometry x="67" width="20" height="20" as="geometry" />
        </mxCell>
        <mxCell id="i-cecyi2e775cCpRPbeq-4" value="" style="ellipse;whiteSpace=wrap;html=1;aspect=fixed;" parent="i-cecyi2e775cCpRPbeq-2" vertex="1">
          <mxGeometry x="67" y="30" width="20" height="20" as="geometry" />
        </mxCell>
        <mxCell id="i-cecyi2e775cCpRPbeq-5" value="" style="ellipse;whiteSpace=wrap;html=1;aspect=fixed;" parent="i-cecyi2e775cCpRPbeq-2" vertex="1">
          <mxGeometry x="67" y="60" width="20" height="20" as="geometry" />
        </mxCell>
        <mxCell id="i-cecyi2e775cCpRPbeq-6" value="" style="ellipse;whiteSpace=wrap;html=1;aspect=fixed;" parent="i-cecyi2e775cCpRPbeq-2" vertex="1">
          <mxGeometry x="67" y="90" width="20" height="20" as="geometry" />
        </mxCell>
        <mxCell id="i-cecyi2e775cCpRPbeq-7" value="" style="ellipse;whiteSpace=wrap;html=1;aspect=fixed;" parent="i-cecyi2e775cCpRPbeq-2" vertex="1">
          <mxGeometry x="67" y="120" width="20" height="20" as="geometry" />
        </mxCell>
        <mxCell id="i-cecyi2e775cCpRPbeq-8" value="" style="ellipse;whiteSpace=wrap;html=1;aspect=fixed;" parent="i-cecyi2e775cCpRPbeq-2" vertex="1">
          <mxGeometry y="50" width="20" height="20" as="geometry" />
        </mxCell>
        <mxCell id="i-cecyi2e775cCpRPbeq-9" value="" style="ellipse;whiteSpace=wrap;html=1;aspect=fixed;" parent="i-cecyi2e775cCpRPbeq-2" vertex="1">
          <mxGeometry y="80" width="20" height="20" as="geometry" />
        </mxCell>
        <mxCell id="i-cecyi2e775cCpRPbeq-16" value="" style="endArrow=classic;html=1;exitX=1;exitY=0.5;exitDx=0;exitDy=0;entryX=0;entryY=0.5;entryDx=0;entryDy=0;" parent="i-cecyi2e775cCpRPbeq-2" source="i-cecyi2e775cCpRPbeq-8" target="i-cecyi2e775cCpRPbeq-20" edge="1">
          <mxGeometry width="50" height="50" relative="1" as="geometry">
            <mxPoint x="260" y="200" as="sourcePoint" />
            <mxPoint x="40" y="10" as="targetPoint" />
          </mxGeometry>
        </mxCell>
        <mxCell id="i-cecyi2e775cCpRPbeq-17" value="" style="endArrow=classic;html=1;exitX=1;exitY=0.5;exitDx=0;exitDy=0;entryX=0;entryY=0.5;entryDx=0;entryDy=0;" parent="i-cecyi2e775cCpRPbeq-2" source="i-cecyi2e775cCpRPbeq-8" target="i-cecyi2e775cCpRPbeq-5" edge="1">
          <mxGeometry width="50" height="50" relative="1" as="geometry">
            <mxPoint x="40" y="80" as="sourcePoint" />
            <mxPoint x="60" y="30" as="targetPoint" />
          </mxGeometry>
        </mxCell>
        <mxCell id="i-cecyi2e775cCpRPbeq-18" value="" style="endArrow=classic;html=1;exitX=1;exitY=0.5;exitDx=0;exitDy=0;entryX=0;entryY=0.5;entryDx=0;entryDy=0;" parent="i-cecyi2e775cCpRPbeq-2" source="i-cecyi2e775cCpRPbeq-9" target="i-cecyi2e775cCpRPbeq-3" edge="1">
          <mxGeometry width="50" height="50" relative="1" as="geometry">
            <mxPoint x="30" y="70" as="sourcePoint" />
            <mxPoint x="40" y="20" as="targetPoint" />
          </mxGeometry>
        </mxCell>
        <mxCell id="i-cecyi2e775cCpRPbeq-19" value="" style="endArrow=classic;html=1;exitX=1;exitY=0.5;exitDx=0;exitDy=0;entryX=0;entryY=0.5;entryDx=0;entryDy=0;" parent="i-cecyi2e775cCpRPbeq-2" source="i-cecyi2e775cCpRPbeq-9" target="i-cecyi2e775cCpRPbeq-5" edge="1">
          <mxGeometry width="50" height="50" relative="1" as="geometry">
            <mxPoint x="30" y="110" as="sourcePoint" />
            <mxPoint x="40" y="70" as="targetPoint" />
          </mxGeometry>
        </mxCell>
        <mxCell id="i-cecyi2e775cCpRPbeq-20" value="" style="ellipse;whiteSpace=wrap;html=1;aspect=fixed;" parent="i-cecyi2e775cCpRPbeq-2" vertex="1">
          <mxGeometry x="67" width="20" height="20" as="geometry" />
        </mxCell>
        <mxCell id="i-cecyi2e775cCpRPbeq-21" value="" style="endArrow=classic;html=1;exitX=1;exitY=0.5;exitDx=0;exitDy=0;entryX=0;entryY=0.5;entryDx=0;entryDy=0;" parent="i-cecyi2e775cCpRPbeq-2" source="i-cecyi2e775cCpRPbeq-8" target="i-cecyi2e775cCpRPbeq-7" edge="1">
          <mxGeometry width="50" height="50" relative="1" as="geometry">
            <mxPoint x="30" y="70" as="sourcePoint" />
            <mxPoint x="50" y="110" as="targetPoint" />
          </mxGeometry>
        </mxCell>
        <mxCell id="i-cecyi2e775cCpRPbeq-39" value="" style="endArrow=classic;html=1;exitX=1;exitY=0.5;exitDx=0;exitDy=0;entryX=0;entryY=0.5;entryDx=0;entryDy=0;" parent="i-cecyi2e775cCpRPbeq-2" source="i-cecyi2e775cCpRPbeq-9" target="i-cecyi2e775cCpRPbeq-4" edge="1">
          <mxGeometry width="50" height="50" relative="1" as="geometry">
            <mxPoint x="30" y="100" as="sourcePoint" />
            <mxPoint x="40" y="40" as="targetPoint" />
          </mxGeometry>
        </mxCell>
        <mxCell id="i-cecyi2e775cCpRPbeq-57" value="隐藏层" style="text;html=1;strokeColor=none;fillColor=none;align=center;verticalAlign=middle;whiteSpace=wrap;rounded=0;dashed=1;" parent="i-cecyi2e775cCpRPbeq-2" vertex="1">
          <mxGeometry x="100" y="-10" width="40" height="20" as="geometry" />
        </mxCell>
        <mxCell id="i-cecyi2e775cCpRPbeq-38" value="" style="endArrow=classic;html=1;entryX=0;entryY=0.5;entryDx=0;entryDy=0;" parent="1" target="i-cecyi2e775cCpRPbeq-4" edge="1">
          <mxGeometry width="50" height="50" relative="1" as="geometry">
            <mxPoint x="340" y="700" as="sourcePoint" />
            <mxPoint x="370" y="660" as="targetPoint" />
          </mxGeometry>
        </mxCell>
        <mxCell id="i-cecyi2e775cCpRPbeq-40" value="" style="endArrow=classic;html=1;entryX=0;entryY=0.5;entryDx=0;entryDy=0;" parent="1" target="i-cecyi2e775cCpRPbeq-6" edge="1">
          <mxGeometry width="50" height="50" relative="1" as="geometry">
            <mxPoint x="340" y="730" as="sourcePoint" />
            <mxPoint x="370" y="720" as="targetPoint" />
          </mxGeometry>
        </mxCell>
        <mxCell id="i-cecyi2e775cCpRPbeq-41" value="" style="endArrow=classic;html=1;entryX=0;entryY=0.5;entryDx=0;entryDy=0;" parent="1" target="i-cecyi2e775cCpRPbeq-7" edge="1">
          <mxGeometry width="50" height="50" relative="1" as="geometry">
            <mxPoint x="340" y="730" as="sourcePoint" />
            <mxPoint x="370" y="750" as="targetPoint" />
          </mxGeometry>
        </mxCell>
        <mxCell id="i-cecyi2e775cCpRPbeq-42" value="" style="endArrow=classic;html=1;entryX=0;entryY=0.5;entryDx=0;entryDy=0;" parent="1" target="i-cecyi2e775cCpRPbeq-6" edge="1">
          <mxGeometry width="50" height="50" relative="1" as="geometry">
            <mxPoint x="340" y="700" as="sourcePoint" />
            <mxPoint x="360" y="740" as="targetPoint" />
          </mxGeometry>
        </mxCell>
        <mxCell id="i-cecyi2e775cCpRPbeq-43" value="" style="endArrow=classic;html=1;entryX=0;entryY=0.5;entryDx=0;entryDy=0;" parent="1" target="i-cecyi2e775cCpRPbeq-12" edge="1">
          <mxGeometry width="50" height="50" relative="1" as="geometry">
            <mxPoint x="407" y="650" as="sourcePoint" />
            <mxPoint x="437" y="705" as="targetPoint" />
          </mxGeometry>
        </mxCell>
        <mxCell id="i-cecyi2e775cCpRPbeq-44" value="" style="endArrow=classic;html=1;entryX=-0.02;entryY=0.66;entryDx=0;entryDy=0;entryPerimeter=0;" parent="1" target="i-cecyi2e775cCpRPbeq-13" edge="1">
          <mxGeometry width="50" height="50" relative="1" as="geometry">
            <mxPoint x="407" y="650" as="sourcePoint" />
            <mxPoint x="437" y="735" as="targetPoint" />
          </mxGeometry>
        </mxCell>
        <mxCell id="i-cecyi2e775cCpRPbeq-45" value="" style="endArrow=classic;html=1;entryX=0;entryY=0.5;entryDx=0;entryDy=0;" parent="1" target="i-cecyi2e775cCpRPbeq-12" edge="1">
          <mxGeometry width="50" height="50" relative="1" as="geometry">
            <mxPoint x="407" y="680" as="sourcePoint" />
            <mxPoint x="437" y="705" as="targetPoint" />
          </mxGeometry>
        </mxCell>
        <mxCell id="i-cecyi2e775cCpRPbeq-46" value="" style="endArrow=classic;html=1;entryX=0;entryY=0.75;entryDx=0;entryDy=0;entryPerimeter=0;" parent="1" target="i-cecyi2e775cCpRPbeq-13" edge="1">
          <mxGeometry width="50" height="50" relative="1" as="geometry">
            <mxPoint x="407" y="680" as="sourcePoint" />
            <mxPoint x="437" y="735" as="targetPoint" />
          </mxGeometry>
        </mxCell>
        <mxCell id="i-cecyi2e775cCpRPbeq-47" value="" style="endArrow=classic;html=1;entryX=0;entryY=0.5;entryDx=0;entryDy=0;" parent="1" target="i-cecyi2e775cCpRPbeq-11" edge="1">
          <mxGeometry width="50" height="50" relative="1" as="geometry">
            <mxPoint x="407" y="740" as="sourcePoint" />
            <mxPoint x="427" y="690" as="targetPoint" />
          </mxGeometry>
        </mxCell>
        <mxCell id="i-cecyi2e775cCpRPbeq-48" value="" style="endArrow=classic;html=1;entryX=0;entryY=0.5;entryDx=0;entryDy=0;" parent="1" target="i-cecyi2e775cCpRPbeq-12" edge="1">
          <mxGeometry width="50" height="50" relative="1" as="geometry">
            <mxPoint x="407" y="710" as="sourcePoint" />
            <mxPoint x="437" y="705" as="targetPoint" />
          </mxGeometry>
        </mxCell>
        <mxCell id="i-cecyi2e775cCpRPbeq-49" value="" style="endArrow=classic;html=1;entryX=0;entryY=0.5;entryDx=0;entryDy=0;" parent="1" target="i-cecyi2e775cCpRPbeq-12" edge="1">
          <mxGeometry width="50" height="50" relative="1" as="geometry">
            <mxPoint x="407" y="740" as="sourcePoint" />
            <mxPoint x="437" y="735" as="targetPoint" />
          </mxGeometry>
        </mxCell>
        <mxCell id="i-cecyi2e775cCpRPbeq-50" value="" style="endArrow=classic;html=1;exitX=1;exitY=0.5;exitDx=0;exitDy=0;" parent="1" source="i-cecyi2e775cCpRPbeq-7" edge="1">
          <mxGeometry width="50" height="50" relative="1" as="geometry">
            <mxPoint x="417" y="750" as="sourcePoint" />
            <mxPoint x="460" y="760" as="targetPoint" />
          </mxGeometry>
        </mxCell>
        <mxCell id="i-cecyi2e775cCpRPbeq-51" value="" style="endArrow=classic;html=1;entryX=0;entryY=0.5;entryDx=0;entryDy=0;" parent="1" target="i-cecyi2e775cCpRPbeq-10" edge="1">
          <mxGeometry width="50" height="50" relative="1" as="geometry">
            <mxPoint x="407" y="770" as="sourcePoint" />
            <mxPoint x="427" y="670" as="targetPoint" />
          </mxGeometry>
        </mxCell>
        <mxCell id="i-cecyi2e775cCpRPbeq-52" value="" style="endArrow=classic;html=1;" parent="1" edge="1">
          <mxGeometry width="50" height="50" relative="1" as="geometry">
            <mxPoint x="407" y="770" as="sourcePoint" />
            <mxPoint x="460" y="730" as="targetPoint" />
          </mxGeometry>
        </mxCell>
        <mxCell id="i-cecyi2e775cCpRPbeq-53" value="" style="endArrow=classic;html=1;entryX=0;entryY=0.5;entryDx=0;entryDy=0;" parent="1" target="i-cecyi2e775cCpRPbeq-10" edge="1">
          <mxGeometry width="50" height="50" relative="1" as="geometry">
            <mxPoint x="407" y="770" as="sourcePoint" />
            <mxPoint x="427" y="670" as="targetPoint" />
          </mxGeometry>
        </mxCell>
        <mxCell id="i-cecyi2e775cCpRPbeq-54" value="" style="endArrow=classic;html=1;exitX=1;exitY=0.5;exitDx=0;exitDy=0;entryX=0;entryY=0.5;entryDx=0;entryDy=0;" parent="1" source="i-cecyi2e775cCpRPbeq-6" target="i-cecyi2e775cCpRPbeq-13" edge="1">
          <mxGeometry width="50" height="50" relative="1" as="geometry">
            <mxPoint x="417" y="780" as="sourcePoint" />
            <mxPoint x="427" y="760" as="targetPoint" />
          </mxGeometry>
        </mxCell>
        <mxCell id="i-cecyi2e775cCpRPbeq-55" value="" style="endArrow=classic;html=1;exitX=1;exitY=0.5;exitDx=0;exitDy=0;entryX=0;entryY=0.5;entryDx=0;entryDy=0;" parent="1" source="i-cecyi2e775cCpRPbeq-5" target="i-cecyi2e775cCpRPbeq-13" edge="1">
          <mxGeometry width="50" height="50" relative="1" as="geometry">
            <mxPoint x="417" y="750" as="sourcePoint" />
            <mxPoint x="427" y="760" as="targetPoint" />
          </mxGeometry>
        </mxCell>
        <mxCell id="i-cecyi2e775cCpRPbeq-10" value="" style="ellipse;whiteSpace=wrap;html=1;aspect=fixed;" parent="1" vertex="1">
          <mxGeometry x="460" y="660" width="20" height="20" as="geometry" />
        </mxCell>
        <mxCell id="i-cecyi2e775cCpRPbeq-11" value="" style="ellipse;whiteSpace=wrap;html=1;aspect=fixed;" parent="1" vertex="1">
          <mxGeometry x="460" y="690" width="20" height="20" as="geometry" />
        </mxCell>
        <mxCell id="i-cecyi2e775cCpRPbeq-12" value="" style="ellipse;whiteSpace=wrap;html=1;aspect=fixed;" parent="1" vertex="1">
          <mxGeometry x="460" y="720" width="20" height="20" as="geometry" />
        </mxCell>
        <mxCell id="i-cecyi2e775cCpRPbeq-13" value="" style="ellipse;whiteSpace=wrap;html=1;aspect=fixed;" parent="1" vertex="1">
          <mxGeometry x="460" y="750" width="20" height="20" as="geometry" />
        </mxCell>
        <mxCell id="i-cecyi2e775cCpRPbeq-14" value="" style="ellipse;whiteSpace=wrap;html=1;aspect=fixed;" parent="1" vertex="1">
          <mxGeometry x="530" y="690" width="20" height="20" as="geometry" />
        </mxCell>
        <mxCell id="i-cecyi2e775cCpRPbeq-15" value="" style="ellipse;whiteSpace=wrap;html=1;aspect=fixed;" parent="1" vertex="1">
          <mxGeometry x="530" y="720" width="20" height="20" as="geometry" />
        </mxCell>
        <mxCell id="i-cecyi2e775cCpRPbeq-30" value="" style="endArrow=classic;html=1;exitX=1;exitY=0.5;exitDx=0;exitDy=0;entryX=0.047;entryY=0.647;entryDx=0;entryDy=0;entryPerimeter=0;" parent="1" source="i-cecyi2e775cCpRPbeq-10" target="i-cecyi2e775cCpRPbeq-14" edge="1">
          <mxGeometry width="50" height="50" relative="1" as="geometry">
            <mxPoint x="450" y="725" as="sourcePoint" />
            <mxPoint x="470" y="775" as="targetPoint" />
          </mxGeometry>
        </mxCell>
        <mxCell id="i-cecyi2e775cCpRPbeq-31" value="" style="endArrow=classic;html=1;entryX=0;entryY=0.5;entryDx=0;entryDy=0;exitX=1;exitY=0.5;exitDx=0;exitDy=0;" parent="1" source="i-cecyi2e775cCpRPbeq-10" target="i-cecyi2e775cCpRPbeq-15" edge="1">
          <mxGeometry width="50" height="50" relative="1" as="geometry">
            <mxPoint x="479" y="673" as="sourcePoint" />
            <mxPoint x="510.93999999999994" y="712.9399999999999" as="targetPoint" />
          </mxGeometry>
        </mxCell>
        <mxCell id="i-cecyi2e775cCpRPbeq-32" value="" style="endArrow=classic;html=1;entryX=0;entryY=0.5;entryDx=0;entryDy=0;exitX=1;exitY=0.5;exitDx=0;exitDy=0;" parent="1" source="i-cecyi2e775cCpRPbeq-11" target="i-cecyi2e775cCpRPbeq-14" edge="1">
          <mxGeometry width="50" height="50" relative="1" as="geometry">
            <mxPoint x="483" y="675" as="sourcePoint" />
            <mxPoint x="510" y="740" as="targetPoint" />
          </mxGeometry>
        </mxCell>
        <mxCell id="i-cecyi2e775cCpRPbeq-33" value="" style="endArrow=classic;html=1;entryX=0;entryY=0.5;entryDx=0;entryDy=0;exitX=1;exitY=0.5;exitDx=0;exitDy=0;" parent="1" source="i-cecyi2e775cCpRPbeq-11" target="i-cecyi2e775cCpRPbeq-15" edge="1">
          <mxGeometry width="50" height="50" relative="1" as="geometry">
            <mxPoint x="490" y="710" as="sourcePoint" />
            <mxPoint x="510" y="710" as="targetPoint" />
          </mxGeometry>
        </mxCell>
        <mxCell id="i-cecyi2e775cCpRPbeq-34" value="" style="endArrow=classic;html=1;entryX=0;entryY=0.5;entryDx=0;entryDy=0;exitX=1;exitY=0.5;exitDx=0;exitDy=0;exitPerimeter=0;" parent="1" source="i-cecyi2e775cCpRPbeq-12" target="i-cecyi2e775cCpRPbeq-14" edge="1">
          <mxGeometry width="50" height="50" relative="1" as="geometry">
            <mxPoint x="490" y="710" as="sourcePoint" />
            <mxPoint x="510" y="740" as="targetPoint" />
          </mxGeometry>
        </mxCell>
        <mxCell id="i-cecyi2e775cCpRPbeq-35" value="" style="endArrow=classic;html=1;entryX=0;entryY=0.5;entryDx=0;entryDy=0;exitX=1;exitY=0.5;exitDx=0;exitDy=0;" parent="1" source="i-cecyi2e775cCpRPbeq-12" target="i-cecyi2e775cCpRPbeq-15" edge="1">
          <mxGeometry width="50" height="50" relative="1" as="geometry">
            <mxPoint x="490" y="740" as="sourcePoint" />
            <mxPoint x="510" y="710" as="targetPoint" />
          </mxGeometry>
        </mxCell>
        <mxCell id="i-cecyi2e775cCpRPbeq-36" value="" style="endArrow=classic;html=1;entryX=0;entryY=0.5;entryDx=0;entryDy=0;exitX=1;exitY=0.5;exitDx=0;exitDy=0;" parent="1" source="i-cecyi2e775cCpRPbeq-13" target="i-cecyi2e775cCpRPbeq-14" edge="1">
          <mxGeometry width="50" height="50" relative="1" as="geometry">
            <mxPoint x="490" y="740" as="sourcePoint" />
            <mxPoint x="510" y="740" as="targetPoint" />
          </mxGeometry>
        </mxCell>
        <mxCell id="i-cecyi2e775cCpRPbeq-37" value="" style="endArrow=classic;html=1;entryX=0;entryY=0.5;entryDx=0;entryDy=0;exitX=1;exitY=0.5;exitDx=0;exitDy=0;" parent="1" source="i-cecyi2e775cCpRPbeq-13" target="i-cecyi2e775cCpRPbeq-15" edge="1">
          <mxGeometry width="50" height="50" relative="1" as="geometry">
            <mxPoint x="490" y="770" as="sourcePoint" />
            <mxPoint x="510" y="710" as="targetPoint" />
          </mxGeometry>
        </mxCell>
        <mxCell id="i-cecyi2e775cCpRPbeq-22" value="" style="endArrow=classic;html=1;exitX=1;exitY=0.5;exitDx=0;exitDy=0;entryX=0;entryY=0.5;entryDx=0;entryDy=0;" parent="1" source="i-cecyi2e775cCpRPbeq-20" target="i-cecyi2e775cCpRPbeq-10" edge="1">
          <mxGeometry width="50" height="50" relative="1" as="geometry">
            <mxPoint x="377" y="710" as="sourcePoint" />
            <mxPoint x="397" y="780" as="targetPoint" />
          </mxGeometry>
        </mxCell>
        <mxCell id="i-cecyi2e775cCpRPbeq-24" value="" style="endArrow=classic;html=1;entryX=0;entryY=0.5;entryDx=0;entryDy=0;exitX=1;exitY=0.5;exitDx=0;exitDy=0;" parent="1" source="i-cecyi2e775cCpRPbeq-4" target="i-cecyi2e775cCpRPbeq-10" edge="1">
          <mxGeometry width="50" height="50" relative="1" as="geometry">
            <mxPoint x="417" y="660" as="sourcePoint" />
            <mxPoint x="436.6" y="768.2" as="targetPoint" />
          </mxGeometry>
        </mxCell>
        <mxCell id="i-cecyi2e775cCpRPbeq-26" value="" style="endArrow=classic;html=1;entryX=0;entryY=0.5;entryDx=0;entryDy=0;exitX=1;exitY=0.5;exitDx=0;exitDy=0;" parent="1" source="i-cecyi2e775cCpRPbeq-5" target="i-cecyi2e775cCpRPbeq-10" edge="1">
          <mxGeometry width="50" height="50" relative="1" as="geometry">
            <mxPoint x="417" y="690" as="sourcePoint" />
            <mxPoint x="437" y="770" as="targetPoint" />
          </mxGeometry>
        </mxCell>
        <mxCell id="i-cecyi2e775cCpRPbeq-28" value="" style="endArrow=classic;html=1;entryX=0;entryY=0.5;entryDx=0;entryDy=0;exitX=1;exitY=0.5;exitDx=0;exitDy=0;" parent="1" source="i-cecyi2e775cCpRPbeq-6" target="i-cecyi2e775cCpRPbeq-10" edge="1">
          <mxGeometry width="50" height="50" relative="1" as="geometry">
            <mxPoint x="417" y="720" as="sourcePoint" />
            <mxPoint x="437" y="705" as="targetPoint" />
          </mxGeometry>
        </mxCell>
        <mxCell id="i-cecyi2e775cCpRPbeq-23" value="" style="endArrow=classic;html=1;exitX=1;exitY=0.5;exitDx=0;exitDy=0;entryX=0;entryY=0.5;entryDx=0;entryDy=0;" parent="1" source="i-cecyi2e775cCpRPbeq-20" target="i-cecyi2e775cCpRPbeq-11" edge="1">
          <mxGeometry width="50" height="50" relative="1" as="geometry">
            <mxPoint x="417" y="660" as="sourcePoint" />
            <mxPoint x="437" y="675" as="targetPoint" />
          </mxGeometry>
        </mxCell>
        <mxCell id="i-cecyi2e775cCpRPbeq-25" value="" style="endArrow=classic;html=1;entryX=0;entryY=0.5;entryDx=0;entryDy=0;exitX=1;exitY=0.5;exitDx=0;exitDy=0;" parent="1" source="i-cecyi2e775cCpRPbeq-4" target="i-cecyi2e775cCpRPbeq-11" edge="1">
          <mxGeometry width="50" height="50" relative="1" as="geometry">
            <mxPoint x="417" y="690" as="sourcePoint" />
            <mxPoint x="437" y="675" as="targetPoint" />
          </mxGeometry>
        </mxCell>
        <mxCell id="i-cecyi2e775cCpRPbeq-27" value="" style="endArrow=classic;html=1;entryX=0;entryY=0.5;entryDx=0;entryDy=0;exitX=1;exitY=0.5;exitDx=0;exitDy=0;" parent="1" source="i-cecyi2e775cCpRPbeq-5" target="i-cecyi2e775cCpRPbeq-11" edge="1">
          <mxGeometry width="50" height="50" relative="1" as="geometry">
            <mxPoint x="417" y="720" as="sourcePoint" />
            <mxPoint x="437" y="675" as="targetPoint" />
          </mxGeometry>
        </mxCell>
        <mxCell id="i-cecyi2e775cCpRPbeq-29" value="" style="endArrow=classic;html=1;exitX=1;exitY=0.5;exitDx=0;exitDy=0;entryX=0;entryY=0.5;entryDx=0;entryDy=0;" parent="1" source="i-cecyi2e775cCpRPbeq-7" target="i-cecyi2e775cCpRPbeq-11" edge="1">
          <mxGeometry width="50" height="50" relative="1" as="geometry">
            <mxPoint x="417" y="780" as="sourcePoint" />
            <mxPoint x="437" y="680" as="targetPoint" />
          </mxGeometry>
        </mxCell>
        <mxCell id="i-cecyi2e775cCpRPbeq-60" style="rounded=0;orthogonalLoop=1;jettySize=auto;html=1;exitX=1;exitY=0.5;exitDx=0;exitDy=0;entryX=0;entryY=0.5;entryDx=0;entryDy=0;" parent="1" source="i-cecyi2e775cCpRPbeq-59" target="i-cecyi2e775cCpRPbeq-8" edge="1">
          <mxGeometry relative="1" as="geometry" />
        </mxCell>
        <mxCell id="i-cecyi2e775cCpRPbeq-61" style="edgeStyle=none;rounded=0;orthogonalLoop=1;jettySize=auto;html=1;exitX=1;exitY=0.5;exitDx=0;exitDy=0;entryX=0;entryY=0.5;entryDx=0;entryDy=0;" parent="1" source="i-cecyi2e775cCpRPbeq-59" target="i-cecyi2e775cCpRPbeq-9" edge="1">
          <mxGeometry relative="1" as="geometry" />
        </mxCell>
        <mxCell id="i-cecyi2e775cCpRPbeq-59" value="数据" style="shape=datastore;whiteSpace=wrap;html=1;" parent="1" vertex="1">
          <mxGeometry x="270" y="705" width="30" height="20" as="geometry" />
        </mxCell>
        <mxCell id="i-cecyi2e775cCpRPbeq-62" value="输入层" style="text;html=1;strokeColor=none;fillColor=none;align=center;verticalAlign=middle;whiteSpace=wrap;rounded=0;" parent="1" vertex="1">
          <mxGeometry x="280" y="680" width="40" height="20" as="geometry" />
        </mxCell>
        <mxCell id="i-cecyi2e775cCpRPbeq-70" style="edgeStyle=none;rounded=0;orthogonalLoop=1;jettySize=auto;html=1;exitX=0.5;exitY=0;exitDx=0;exitDy=0;entryX=1;entryY=1;entryDx=0;entryDy=0;fillColor=#ffffff;shape=flexArrow;strokeColor=none;endWidth=11.428571428571429;endSize=4.1657142857142855;gradientColor=#FF3333;" parent="1" source="i-cecyi2e775cCpRPbeq-63" target="i-cecyi2e775cCpRPbeq-67" edge="1">
          <mxGeometry relative="1" as="geometry" />
        </mxCell>
        <mxCell id="i-cecyi2e775cCpRPbeq-63" value="输出层" style="text;html=1;strokeColor=none;fillColor=none;align=center;verticalAlign=middle;whiteSpace=wrap;rounded=0;" parent="1" vertex="1">
          <mxGeometry x="520" y="670" width="40" height="20" as="geometry" />
        </mxCell>
        <mxCell id="i-cecyi2e775cCpRPbeq-67" value="基于关系的蒸馏" style="rounded=1;whiteSpace=wrap;html=1;fillColor=#FFCCCC;" parent="1" vertex="1">
          <mxGeometry x="380" y="580" width="90" height="20" as="geometry" />
        </mxCell>
        <mxCell id="i-cecyi2e775cCpRPbeq-68" style="edgeStyle=none;rounded=0;orthogonalLoop=1;jettySize=auto;html=1;entryX=0.045;entryY=1.021;entryDx=0;entryDy=0;entryPerimeter=0;fillColor=#ffffff;shape=flexArrow;strokeColor=none;width=7.428571428571429;endSize=4.154285714285714;gradientColor=#FF3333;" parent="1" target="i-cecyi2e775cCpRPbeq-67" edge="1">
          <mxGeometry relative="1" as="geometry">
            <mxPoint x="330" y="680" as="sourcePoint" />
          </mxGeometry>
        </mxCell>
        <mxCell id="i-cecyi2e775cCpRPbeq-69" style="edgeStyle=none;rounded=0;orthogonalLoop=1;jettySize=auto;html=1;exitX=0.25;exitY=0;exitDx=0;exitDy=0;entryX=0.557;entryY=1.04;entryDx=0;entryDy=0;entryPerimeter=0;fillColor=#ffffff;shape=flexArrow;strokeColor=none;width=6.857142857142857;endSize=2.4857142857142853;gradientColor=#FF3333;" parent="1" source="i-cecyi2e775cCpRPbeq-57" target="i-cecyi2e775cCpRPbeq-67" edge="1">
          <mxGeometry relative="1" as="geometry" />
        </mxCell>
        <mxCell id="i-cecyi2e775cCpRPbeq-71" value="基于特征的蒸馏" style="rounded=1;whiteSpace=wrap;html=1;fillColor=#CCCCFF;" parent="1" vertex="1">
          <mxGeometry x="383" y="820" width="90" height="20" as="geometry" />
        </mxCell>
        <mxCell id="i-cecyi2e775cCpRPbeq-72" style="edgeStyle=none;shape=flexArrow;rounded=0;orthogonalLoop=1;jettySize=auto;html=1;exitX=0.5;exitY=1;exitDx=0;exitDy=0;fillColor=#ffffff;gradientColor=#9999FF;" parent="1" source="i-cecyi2e775cCpRPbeq-56" edge="1">
          <mxGeometry relative="1" as="geometry">
            <mxPoint x="430" y="820" as="targetPoint" />
          </mxGeometry>
        </mxCell>
        <mxCell id="i-cecyi2e775cCpRPbeq-73" value="" style="html=1;shadow=0;dashed=0;align=center;verticalAlign=middle;shape=mxgraph.arrows2.stripedArrow;dy=0.65;dx=18.48;notch=25;fillColor=#CCCCFF;gradientColor=none;" parent="1" vertex="1">
          <mxGeometry x="265" y="815" width="80" height="15" as="geometry" />
        </mxCell>
        <mxCell id="i-cecyi2e775cCpRPbeq-74" value="蒸馏" style="text;html=1;strokeColor=none;fillColor=none;align=center;verticalAlign=middle;whiteSpace=wrap;rounded=0;" parent="1" vertex="1">
          <mxGeometry x="270" y="795" width="40" height="20" as="geometry" />
        </mxCell>
        <mxCell id="i-cecyi2e775cCpRPbeq-75" value="基于响应的蒸馏" style="rounded=1;whiteSpace=wrap;html=1;fillColor=#FFFFCC;" parent="1" vertex="1">
          <mxGeometry x="495" y="820" width="90" height="20" as="geometry" />
        </mxCell>
        <mxCell id="i-cecyi2e775cCpRPbeq-76" value="" style="shape=flexArrow;endArrow=classic;html=1;fillColor=#ffffff;entryX=0.5;entryY=0;entryDx=0;entryDy=0;gradientColor=#FFFF99;" parent="1" target="i-cecyi2e775cCpRPbeq-75" edge="1">
          <mxGeometry width="50" height="50" relative="1" as="geometry">
            <mxPoint x="540" y="750" as="sourcePoint" />
            <mxPoint x="555" y="750" as="targetPoint" />
          </mxGeometry>
        </mxCell>
        <mxCell id="i-cecyi2e775cCpRPbeq-66" value="教师模型" style="text;html=1;strokeColor=none;fillColor=none;align=center;verticalAlign=middle;whiteSpace=wrap;rounded=0;" parent="1" vertex="1">
          <mxGeometry x="270" y="640" width="30" height="20" as="geometry" />
        </mxCell>
        <mxCell id="B3fZlqtm0j4gGUwRaWmn-2" value="" style="shape=cube;whiteSpace=wrap;html=1;boundedLbl=1;backgroundOutline=1;darkOpacity=0.05;darkOpacity2=0.1;" vertex="1" parent="1">
          <mxGeometry x="183.21428571428567" y="236.66333333333336" width="26.78571428571429" height="23.333333333333336" as="geometry" />
        </mxCell>
        <mxCell id="B3fZlqtm0j4gGUwRaWmn-3" value="" style="shape=cube;whiteSpace=wrap;html=1;boundedLbl=1;backgroundOutline=1;darkOpacity=0.05;darkOpacity2=0.1;" vertex="1" parent="1">
          <mxGeometry x="162.67857142857144" y="219.99666666666667" width="26.78571428571429" height="46.66666666666667" as="geometry" />
        </mxCell>
        <mxCell id="B3fZlqtm0j4gGUwRaWmn-4" value="" style="shape=cube;whiteSpace=wrap;html=1;boundedLbl=1;backgroundOutline=1;darkOpacity=0.05;darkOpacity2=0.1;" vertex="1" parent="1">
          <mxGeometry x="110" y="169.99666666666667" width="26.78571428571429" height="113.33333333333336" as="geometry" />
        </mxCell>
        <mxCell id="B3fZlqtm0j4gGUwRaWmn-5" value="" style="shape=cube;whiteSpace=wrap;html=1;boundedLbl=1;backgroundOutline=1;darkOpacity=0.05;darkOpacity2=0.1;" vertex="1" parent="1">
          <mxGeometry x="136.78571428571433" y="190.82999999999998" width="26.78571428571429" height="79.16666666666667" as="geometry" />
        </mxCell>
      </root>
    </mxGraphModel>
  </diagram>
</mxfile>
